<svg width="25" height="24" viewBox="0 0 25 24" fill="none" xmlns="http://www.w3.org/2000/svg">
<path d="M18.4931 6.23868C20.5317 9.43487 21.5385 13.0401 21.1621 17.1905C21.1606 17.2081 21.152 17.2242 21.1384 17.2348C19.5946 18.4436 18.0989 19.1772 16.6241 19.6637C16.6127 19.6674 16.6004 19.6672 16.589 19.6631C16.5776 19.659 16.5678 19.6512 16.5607 19.6408C16.22 19.1353 15.9105 18.6024 15.6392 18.0427C15.6237 18.0098 15.6379 17.9701 15.6699 17.9571C16.1616 17.7595 16.6291 17.5228 17.0788 17.2425C17.1142 17.2203 17.1165 17.1662 17.0838 17.1402C16.9883 17.0647 16.8938 16.9853 16.8033 16.9059C16.7864 16.8912 16.7636 16.8883 16.7444 16.8982C13.8249 18.3358 10.6268 18.3358 7.67273 16.8982C7.65355 16.889 7.63076 16.8921 7.61429 16.9066C7.52404 16.986 7.42927 17.0647 7.33473 17.1402C7.30201 17.1662 7.30472 17.2203 7.34037 17.2425C7.79006 17.5175 8.25758 17.7595 8.74856 17.958C8.78037 17.971 8.79549 18.0098 8.7797 18.0427C8.51435 18.6031 8.20478 19.136 7.85775 19.6415C7.84263 19.662 7.81781 19.6714 7.79435 19.6637C6.32659 19.1772 4.83085 18.4436 3.28705 17.2348C3.27419 17.2242 3.26494 17.2073 3.26358 17.1898C2.94905 13.5997 3.59008 9.96468 5.93015 6.23796C5.93579 6.22809 5.94436 6.2204 5.95429 6.21582C7.10571 5.65233 8.33926 5.23777 9.62854 5.00101C9.65201 4.99716 9.67547 5.00871 9.68766 5.03085C9.84695 5.3316 10.029 5.71729 10.1522 6.03248C11.5112 5.81113 12.8915 5.81113 14.2789 6.03248C14.4021 5.72403 14.5779 5.3316 14.7365 5.03085C14.7421 5.01987 14.7509 5.01107 14.7615 5.00571C14.7721 5.00035 14.7841 4.99871 14.7956 5.00101C16.0856 5.23849 17.3191 5.65305 18.4696 6.21582C18.4798 6.2204 18.4881 6.22809 18.4931 6.23868ZM10.8431 13.0646C10.8574 12.0033 10.1317 11.1251 9.22082 11.1251C8.31737 11.1251 7.59872 11.9956 7.59872 13.0646C7.59872 14.1334 8.33159 15.0039 9.22082 15.0039C10.1245 15.0039 10.8431 14.1334 10.8431 13.0646ZM16.841 13.0646C16.8552 12.0033 16.1296 11.1251 15.2189 11.1251C14.3152 11.1251 13.5966 11.9956 13.5966 13.0646C13.5966 14.1334 14.3294 15.0039 15.2189 15.0039C16.1296 15.0039 16.841 14.1334 16.841 13.0646Z" fill="black"/>
</svg>
