<svg width="24" height="24" viewBox="0 0 24 24" fill="none" xmlns="http://www.w3.org/2000/svg">
<path fill-rule="evenodd" clip-rule="evenodd" d="M16.4134 6.9906C16.2948 8.69291 15.3953 10.3009 13.8874 11.5065C13.3111 11.9672 12.6669 12.4823 12 13.0154C8.55157 15.7728 8.55157 20.2429 12 23C12.119 21.2974 13.0182 19.6897 14.5261 18.4841C15.1024 18.0236 15.7466 17.5083 16.4134 16.9752C19.8622 14.2181 19.8622 9.74769 16.4134 6.9906ZM12 1C11.8811 2.70256 10.9819 4.31027 9.474 5.51587C8.89767 5.9764 8.25348 6.49169 7.58635 7.02482C4.13788 9.78191 4.13788 14.2521 7.58635 17.0092C7.58665 17.0092 7.58665 17.0094 7.58665 17.0094C7.70528 15.3071 8.60477 13.6991 10.1127 12.4935C10.6887 12.0328 11.3332 11.5177 12 10.9846C15.4485 8.22724 15.4485 3.75709 12 1Z" fill="black"/>
</svg>
