<svg width="95" height="16" viewBox="0 0 95 16" fill="none" xmlns="http://www.w3.org/2000/svg">
<g clip-path="url(#clip0_10212_13567)">
<mask id="mask0_10212_13567" style="mask-type:luminance" maskUnits="userSpaceOnUse" x="0" y="0" width="95" height="16">
<path d="M0 0.380951H95V15.619H0V0.380951Z" fill="white"/>
</mask>
<g mask="url(#mask0_10212_13567)">
<path d="M29.5845 1.86209H24.4605V3.11619H28.2225C28.9803 3.11619 29.5845 3.71581 29.5845 4.448V5.54285C29.5845 6.28343 28.9803 6.87466 28.2225 6.87466H23.1799V5.62133H28.3039V4.368H24.5419C23.7841 4.368 23.1799 3.76838 23.1799 3.03543V1.94133C23.1799 1.20076 23.7841 0.60952 24.5419 0.60952H29.5845V1.86209ZM35.7959 0.60952C36.5536 0.60952 37.167 1.2 37.167 1.94133V5.54133C37.167 6.28266 36.5536 6.87466 35.7959 6.87466H31.8538C31.0969 6.87466 30.4919 6.28266 30.4919 5.54133V1.94133C30.4919 1.2 31.0961 0.608758 31.8538 0.608758L35.7959 0.60952ZM35.8773 1.86209H31.7733V5.62133H35.8773V1.86209ZM39.4485 5.58019H44.4455V6.93028H38.9522C38.465 6.93028 38.0683 6.54171 38.0683 6.06552V0.559235H39.4485V5.58019ZM50.9101 0.60952C51.5241 0.60952 52.0196 1.08571 52.0196 1.68533V6.8739H50.7299V4.81828H46.6259V6.8739H45.3446V1.68533C45.3446 1.08571 45.831 0.60952 46.4451 0.60952H50.9101ZM50.7299 1.86209H46.6259V3.56571H50.7299V1.86209ZM58.3064 0.60952H59.5961V6.06247C59.5961 6.512 59.2169 6.8739 58.757 6.8739H57.7645C57.6132 6.87882 57.4636 6.8409 57.3328 6.76449C57.202 6.68809 57.0953 6.57628 57.025 6.4419L54.5353 1.86285H54.2016V6.8739H52.921V1.43009C52.921 0.970663 53.2904 0.60952 53.7509 0.60952H54.7974C55.1037 0.60952 55.3925 0.767996 55.5369 1.04152L58.0267 5.62057H58.3064V0.60952ZM66.0629 0.60952C66.6763 0.60952 67.1725 1.08571 67.1725 1.68533V6.8739H65.882V4.81828H61.7781V6.8739H60.4974V1.68533C60.4974 1.08571 60.9839 0.608758 61.5972 0.608758L66.0629 0.60952ZM65.8828 1.86209H61.7781V3.56495H65.882L65.8828 1.86209ZM29.4583 10.1059H24.4605V11.3592H29.4583V12.6118H24.4605V15.1185H23.1799V8.85333H29.4583V10.1059ZM35.6652 8.85333C36.4229 8.85333 37.0363 9.44457 37.0363 10.1859V13.7859C37.0363 14.5272 36.4229 15.1185 35.6652 15.1185H31.7231C30.9654 15.1185 30.3612 14.5272 30.3612 13.7851V10.1867C30.3612 9.44533 30.9654 8.85333 31.7231 8.85333H35.6652ZM35.7465 10.1059H31.6425V13.8651H35.7465V10.1059ZM43.3215 8.85333H44.6119V13.0179C44.6021 14.1829 43.6467 15.1177 42.4558 15.1177H40.0823C38.8914 15.1177 37.9353 14.1829 37.9353 13.0179V8.85333H39.2167V12.7619C39.2167 13.3714 39.7213 13.8651 40.3438 13.8651H42.1936C42.8153 13.8651 43.3207 13.3707 43.3207 12.7619L43.3215 8.85333ZM50.8971 8.85333H52.1869V14.3063C52.1869 14.7558 51.8084 15.1177 51.3478 15.1177H50.356C50.2046 15.1228 50.0548 15.0849 49.9239 15.0085C49.7929 14.9321 49.6861 14.8202 49.6158 14.6857L47.126 10.1067H46.7924V15.1177H45.5118V9.6739C45.5118 9.21447 45.8819 8.85333 46.3417 8.85333H47.3882C47.6945 8.85333 47.9833 9.01181 48.1277 9.28533L50.6174 13.8644H50.8971V8.85333ZM57.6064 8.85333C58.7973 8.85333 59.7534 9.79733 59.7625 10.9531V13.0179C59.7534 14.1829 58.7973 15.1185 57.6064 15.1185H53.0875V8.85333H57.6064ZM58.4728 11.2183C58.4718 11.0709 58.4418 10.9252 58.3846 10.7895C58.3273 10.6538 58.2439 10.5308 58.1391 10.4275C58.0344 10.3241 57.9103 10.2425 57.774 10.1874C57.6377 10.1322 57.4919 10.1045 57.345 10.1059H54.3681V13.8651H57.345C57.9674 13.8651 58.4728 13.3707 58.4728 12.7619V11.2183ZM66.2309 8.85333C66.8442 8.85333 67.3405 9.32952 67.3405 9.9299V15.1185H66.05V13.0621H61.946V15.1185H60.6646V9.9299C60.6646 9.32952 61.1518 8.85333 61.7651 8.85333H66.2309ZM66.05 10.1059H61.946V11.8095H66.05V10.1059ZM68.2403 8.85333H74.6441V10.1059H72.0829V15.1185H70.8015V10.1059H68.2403V8.85333ZM76.8329 15.1185H75.5515V8.85333H76.8329V15.1185ZM83.0413 8.85333C83.799 8.85333 84.4131 9.44457 84.4131 10.1859V13.7859C84.4131 14.5272 83.799 15.1185 83.0413 15.1185H79.0992C78.3415 15.1185 77.7373 14.5272 77.7373 13.7851V10.1867C77.7373 9.44533 78.3415 8.85333 79.0992 8.85333H83.0413ZM83.1227 10.1059H79.0179V13.8651H83.1227V10.1059ZM90.6983 8.85333H91.9881V14.3063C91.9881 14.7558 91.6096 15.1185 91.1498 15.1185H90.1572C90.0058 15.1233 89.8562 15.0853 89.7254 15.0087C89.5946 14.9322 89.4879 14.8202 89.4177 14.6857L86.928 10.1067H86.5943V15.1185H85.313V9.6739C85.313 9.21523 85.6831 8.85333 86.1429 8.85333H87.1894C87.4957 8.85333 87.7845 9.01181 87.9289 9.28533L90.4186 13.8651H90.6983V8.85333Z" fill="black"/>
<mask id="mask1_10212_13567" style="mask-type:luminance" maskUnits="userSpaceOnUse" x="0" y="0" width="17" height="16">
<path d="M16.5604 0.787804H0V15.3021H16.5604V0.787804Z" fill="white"/>
</mask>
<g mask="url(#mask1_10212_13567)">
<path d="M16.475 12.2314L13.7413 15.1037C13.6815 15.1666 13.6095 15.2165 13.5298 15.2506C13.4501 15.2846 13.3643 15.3021 13.2777 15.3018H0.316641C0.25557 15.3011 0.195928 15.2832 0.144479 15.2502C0.0930301 15.2172 0.0518331 15.1704 0.0255611 15.1152C0.000616142 15.0596 -0.0071414 14.9978 0.00329005 14.9378C0.0137215 14.8778 0.041863 14.8222 0.0840811 14.7784L2.82008 11.906C2.8799 11.8432 2.95186 11.7932 3.03156 11.7592C3.11126 11.7251 3.19704 11.7077 3.28368 11.7079H16.2424C16.304 11.7079 16.3648 11.7255 16.4172 11.759C16.456 11.783 16.4889 11.8154 16.5135 11.8539C16.5381 11.8924 16.5538 11.9359 16.5593 11.9813C16.5649 12.0266 16.5602 12.0726 16.5456 12.1159C16.531 12.1592 16.5069 12.1987 16.475 12.2314ZM13.7413 6.44545C13.6815 6.38262 13.6095 6.33266 13.5298 6.2986C13.4501 6.26455 13.3643 6.24711 13.2777 6.24736H0.316641C0.255489 6.24817 0.19579 6.26616 0.144333 6.29929C0.0928759 6.33243 0.0517254 6.37937 0.0255611 6.43479C0.000782776 6.49026 -0.00688502 6.55189 0.00354289 6.61176C0.0139708 6.67164 0.0420181 6.72702 0.0840811 6.77079L2.82008 9.64393C2.8799 9.70676 2.95186 9.75672 3.03156 9.79078C3.11126 9.82483 3.19704 9.84227 3.28368 9.84203H16.2424C16.3038 9.84213 16.3639 9.82451 16.4155 9.79127C16.4671 9.75803 16.5081 9.71058 16.5335 9.6546C16.5582 9.59905 16.5657 9.53738 16.5552 9.4775C16.5446 9.41762 16.5164 9.36228 16.4742 9.3186L13.7413 6.44545ZM0.317401 4.38069H13.2769C13.3636 4.3806 13.4494 4.36302 13.5292 4.32898C13.609 4.29495 13.6811 4.24516 13.7413 4.1826L16.475 1.31021C16.5063 1.27727 16.53 1.23778 16.5443 1.19457C16.5585 1.15136 16.5631 1.10551 16.5576 1.06033C16.552 1.01515 16.5366 0.971759 16.5123 0.933285C16.4881 0.894811 16.4556 0.862211 16.4172 0.837834C16.3658 0.803464 16.305 0.785656 16.2432 0.786786H3.28368C3.19724 0.787081 3.11173 0.804765 3.03223 0.838792C2.95273 0.872819 2.88084 0.922497 2.82084 0.984881L0.0856011 3.85726C0.0442841 3.90147 0.0166822 3.95677 0.00615706 4.01643C-0.0043681 4.07609 0.00263765 4.13753 0.0263211 4.19326C0.0524286 4.24856 0.0934611 4.29543 0.144771 4.32856C0.196082 4.36168 0.255619 4.37974 0.316641 4.38069" fill="black"/>
</g>
</g>
</g>
<defs>
<clipPath id="clip0_10212_13567">
<rect width="95" height="16" fill="white"/>
</clipPath>
</defs>
</svg>
