<svg width="18" height="18" viewBox="0 0 18 18" fill="none" xmlns="http://www.w3.org/2000/svg">
<rect width="18" height="18" rx="9" fill="black"/>
<path fill-rule="evenodd" clip-rule="evenodd" d="M5.97482 7.02117C6.40622 7.02117 6.787 6.80447 7.01426 6.47399C7.13647 6.29627 7.31988 6.15076 7.53557 6.15076C7.75125 6.15076 7.93465 6.29625 8.05686 6.47397C8.08806 6.51935 8.12215 6.56257 8.15887 6.60339C8.3367 6.80106 8.496 7.03492 8.496 7.30081V7.36569C8.496 7.68765 8.29006 7.96644 8.08012 8.21055C7.89036 8.43119 7.77567 8.71826 7.77567 9.0321C7.77567 9.33 7.879 9.60377 8.05178 9.81951C8.26999 10.092 8.496 10.3938 8.496 10.7429C8.496 11.092 8.26999 11.3938 8.05178 11.6663C7.879 11.882 7.77567 12.1558 7.77567 12.4537C7.77567 13.1499 8.34005 13.7143 9.03625 13.7143C9.73246 13.7143 10.2968 13.1499 10.2968 12.4537C10.2968 12.1558 10.1935 11.882 10.0207 11.6663C9.80252 11.3938 9.57651 11.092 9.57651 10.7429C9.57651 10.3938 9.80252 10.092 10.0207 9.81951C10.1935 9.60377 10.2968 9.33 10.2968 9.0321C10.2968 8.69746 10.1664 8.39328 9.95369 8.16759C9.75707 7.959 9.57651 7.71016 9.57651 7.42351C9.57651 7.12274 9.7745 6.86495 9.98727 6.65237C10.042 6.59766 10.0918 6.53793 10.1358 6.47394C10.258 6.29623 10.4413 6.15076 10.657 6.15076C10.8727 6.15076 11.0561 6.29624 11.1782 6.47395C11.4055 6.80446 11.7863 7.02117 12.2177 7.02117C12.9139 7.02117 13.4783 6.45679 13.4783 5.76059C13.4783 5.06438 12.9139 4.5 12.2177 4.5C11.849 4.5 11.5173 4.65829 11.2868 4.91061C11.1196 5.09359 10.9049 5.25034 10.657 5.25034C10.4092 5.25034 10.1944 5.09359 10.0272 4.91061C9.79674 4.65829 9.46501 4.5 9.09631 4.5C8.72763 4.5 8.39592 4.65827 8.16541 4.91057C7.99822 5.09357 7.78344 5.25034 7.53557 5.25034C7.28769 5.25034 7.07291 5.09357 6.90572 4.91057C6.67521 4.65827 6.3435 4.5 5.97482 4.5C5.27862 4.5 4.71423 5.06438 4.71423 5.76059C4.71423 6.45679 5.27862 7.02117 5.97482 7.02117Z" fill="white"/>
<ellipse cx="12.2142" cy="8.57143" rx="0.857143" ry="0.857143" fill="white"/>
<ellipse cx="12.2142" cy="11.1429" rx="0.428572" ry="0.428571" fill="white"/>
<ellipse cx="5.99997" cy="8.57143" rx="0.857143" ry="0.857143" fill="white"/>
<ellipse cx="5.99998" cy="11.1429" rx="0.428571" ry="0.428571" fill="white"/>
</svg>
